<?xml version="1.0" encoding="UTF-8"?>
<svg id="Layer_1" xmlns="http://www.w3.org/2000/svg" viewBox="0 0 314.24 392.8">
  <defs>
    <style>
      .cls-1 {
        fill: #4b8f8c;
      }

      .cls-2 {
        fill: #231f20;
      }

      .cls-3 {
        fill: #004b3f;
      }

      .cls-4 {
        fill: #fff;
      }
    </style>
  </defs>
  <path class="cls-4" d="M150.38,379.61c-1.76,0-3.51-.29-5.18-.85-6.73-2.27-11.15-8.58-10.98-15.7l1.88-79.69-20.77,9.8c-7.26,3.42-16.05.94-20.43-5.78-16.09-24.64-76.62-151.78-83.47-166.2-3.53-7.43-.92-16.31,6.06-20.66,32.43-20.18,65.7-37.32,98.89-50.94,26.65-10.94,53.32-19.65,79.28-25.89,44.84-10.79,72.17-10.52,73.31-10.5,4.91.07,9.47,2.33,12.49,6.2,3.03,3.87,4.13,8.84,3.01,13.63l-30.92,132.86,30.63-7.86c6.59-1.68,13.57.96,17.39,6.57,3.82,5.62,3.7,13.09-.29,18.59l-137.83,189.76c-3.03,4.17-7.92,6.67-13.08,6.67ZM159.97,246.67l-2.24,95.02,113.79-156.67-48.96,12.56,37.48-161.06c-10.76.69-31.23,2.85-59.01,9.54-24.81,5.97-50.36,14.32-75.92,24.81-30.24,12.41-60.59,27.87-90.28,45.99,21.96,46.1,61.12,126.81,76.23,152.89l48.9-23.07Z"/>
  <g>
    <path class="cls-1" d="M26.03,114.25s66.42,139.83,82.4,164.3l44.45-20.97-2.5,105.87,137.83-189.77-56.43,14.48,36.95-158.8s-103.87-1.5-242.7,84.9Z"/>
    <path class="cls-4" d="M132.97,73.17s75.14-34.38,117.86-30.2c0,0-13.75,75.14-18.66,96.25,0,0,2.7-74.65-2.46-78.08,0,0-14.49-7.37-96.74,12.03Z"/>
    <g>
      <path class="cls-4" d="M121.59,167.16s-12.87-49.33,7.66-52.39c0,0,25.12-7.05,32.17,42.59,0,0-19.92-4.29-39.83,9.8Z"/>
      <path class="cls-2" d="M164.4,156.93c-3-21.15-9.61-35.19-19.63-41.73-7.7-5.03-14.76-3.71-16.12-3.39-4.08.64-7.34,2.78-9.7,6.36-9.4,14.23-.66,48.31-.29,49.75.25.96.95,1.73,1.89,2.07.33.12.69.18,1.03.18.61,0,1.23-.19,1.75-.55,4.02-2.84,8.05-4.89,11.9-6.37,4.43-1.69,8.63-2.6,12.29-3.06,7.79-.98,13.16.09,13.26.11.97.21,1.97-.07,2.69-.74.72-.67,1.07-1.66.93-2.63ZM149.03,153.92c-5.16.44-11.45,1.68-18.16,4.58-2.4,1.03-4.85,2.28-7.33,3.78-2.41-11.18-5.31-32.07.46-40.78,1.42-2.16,3.29-3.38,5.7-3.74.13-.02.23-.03.35-.07.09-.02.99-.25,2.44-.25,2.16,0,5.51.5,9.15,2.92,5.46,3.63,12.54,12.41,16.18,33.5-2.23-.17-5.24-.24-8.79.06Z"/>
    </g>
    <g>
      <path class="cls-4" d="M214.49,148.23s-.43-40.75-22.58-40.14-13.26,40.14-13.26,40.14l1.27,3.68,34.58-3.68Z"/>
      <path class="cls-2" d="M205.43,110.39c-3.82-3.67-8.4-5.46-13.61-5.32-5.34.15-9.6,2.22-12.67,6.17-9.14,11.75-3.69,36.6-3.45,37.65.02.1.05.21.09.32l1.27,3.68c.42,1.23,1.57,2.04,2.85,2.04.11,0,.21,0,.32-.02l11.13-1.19,10.71-1.14,12.74-1.36c1.55-.16,2.72-1.48,2.7-3.03-.01-1.08-.42-26.59-12.07-37.8ZM204.42,146.27l-17.1,1.82-5.34.57-.43-1.24c-1.43-6.54-3.72-24.64,2.37-32.47,1.93-2.48,4.57-3.74,8.07-3.83,3.58-.1,6.61,1.09,9.25,3.63,7.84,7.54,9.68,24.22,10.1,30.79l-6.92.74Z"/>
    </g>
    <path class="cls-2" d="M149.03,153.92c-.2,2.38-.71,4.52-1.5,6.28-3.66.46-7.86,1.37-12.29,3.06-1.55-1.17-3.04-2.79-4.37-4.76-1.79-2.66-3.29-5.96-4.27-9.66-2.81-10.59-.3-20.44,5.6-22,4.92-1.31,10.66,3.57,14.05,11.36l-9.96,8.06,12.65,2.05c.21,1.96.24,3.85.09,5.6Z"/>
    <path class="cls-2" d="M204.82,141.49c0,1.68-.13,3.29-.4,4.77-.44,2.5-1.26,4.67-2.35,6.32l-10.71,1.14c-1.53-1.37-2.91-3.3-4.04-5.64-1.15-2.38-2.03-5.17-2.51-8.21-1.52-9.72,1.64-18.28,7.06-19.13,4.53-.71,9.19,4.19,11.5,11.47l-9.65,6.27,11.11,3.02Z"/>
    <path class="cls-2" d="M139.51,226.32c12.01,5.58,24.77,10.34,37.98,8.24,4.82-.77,9.74-2.41,12.87-6.39,1.53-1.95,2.62-4.43,3.03-7.22.95,2.79.67,5.92-.45,8.68-2.35,5.8-8.52,9.23-14.32,10.55-14.26,3.36-29.88-2.87-39.12-13.85h0Z"/>
    <polygon class="cls-4" points="260.49 191.88 241.92 196.4 224.82 246.27 260.49 191.88"/>
    <path class="cls-3" d="M47.36,103.92s44.24,123.65,70.24,160.74l33.79-10.61s6.18-3.37,13.77-.28l1.32,84.85-13.12,15.17,1.97-95.52-37.72,13.49-8.92,3.37L28.62,114.43l18.74-10.51Z"/>
    <path class="cls-2" d="M150.38,368.11c-.5,0-1-.08-1.49-.25-1.93-.65-3.22-2.49-3.17-4.53l2.32-98.32-37.61,17.75c-2.11.99-4.62.28-5.9-1.67-15.97-24.45-79.99-159.13-82.71-164.85-1.02-2.14-.27-4.71,1.75-5.96,31.89-19.84,64.58-36.69,97.18-50.07,26.11-10.71,52.22-19.24,77.6-25.35,43.39-10.44,69.36-10.2,70.45-10.18,1.41.02,2.74.68,3.61,1.79s1.19,2.56.87,3.93l-35.21,151.32,48.99-12.57c1.9-.49,3.91.27,5.02,1.9,1.11,1.63,1.07,3.77-.08,5.36l-137.83,189.77c-.9,1.23-2.31,1.92-3.77,1.92ZM152.88,252.91c.89,0,1.77.25,2.54.75,1.36.88,2.16,2.4,2.12,4.02l-2.14,90.92,121.43-167.19-43.89,11.26c-1.58.4-3.25-.04-4.42-1.18-1.17-1.14-1.65-2.8-1.28-4.39l35.58-152.91c-9.92.5-31.98,2.43-62.7,9.85-38.45,9.29-98.58,29.3-168.08,71.98,10.24,21.48,61.28,128.15,78.16,156.53l40.68-19.2c.63-.3,1.31-.45,1.99-.45Z"/>
    <path class="cls-2" d="M150.25,102.8c-15.91-8.02-29.64-12.16-42.51,3.09-1.68,1.9-3.23,4.03-4.77,6.06-.74,1.08-1.52,2.16-2.35,3.23.9-5.98,3.39-11.9,7.34-16.76,4.85-5.81,11.8-9.18,19.43-8.66,9.06.63,17.55,5.85,22.87,13.03h0Z"/>
    <path class="cls-2" d="M170.87,95.7c5.32-7.19,13.81-12.4,22.87-13.03,7.62-.52,14.58,2.86,19.43,8.66,3.95,4.86,6.44,10.78,7.34,16.76-.83-1.07-1.62-2.15-2.35-3.23-1.55-2.04-3.09-4.16-4.77-6.06-12.87-15.27-26.63-11.11-42.51-3.09h0Z"/>
    <g>
      <path class="cls-4" d="M218.74,174.31c1.83,12.58-14.6,37.44-38.81,40.96-24.21,3.51-47.03-15.65-48.85-28.23-1.83-12.58,19.02-6.99,43.23-10.5,24.21-3.51,42.6-14.81,44.43-2.23Z"/>
      <path class="cls-2" d="M222.27,173.8c-.47-3.25-1.87-5.66-4.15-7.16-5.04-3.31-12.71-1.23-23.32,1.65-6.24,1.69-13.33,3.61-20.99,4.72-7.67,1.11-15,1.29-21.47,1.44-10.99.26-18.94.45-22.82,5.05-1.77,2.09-2.42,4.8-1.95,8.04.13.88.33,1.77.61,2.68,1.14,3.71,3.52,7.62,6.86,11.32,2.77,3.08,6.2,6.03,10.12,8.62,9.02,5.96,19.06,9.09,28.86,9.09,2.16,0,4.31-.15,6.44-.46,11.76-1.71,22.9-8.21,31.38-18.32,6.71-7.99,10.61-16.97,10.61-24.14,0-.87-.05-1.72-.18-2.54ZM149.09,204.21c-.88-.58-1.72-1.18-2.52-1.78-4.98-3.75-8.38-7.79-10.26-11.27-.93-1.72-1.49-3.3-1.68-4.64-.25-1.72.19-2.24.34-2.41,1.82-2.15,9.81-2.34,17.54-2.53,6.67-.16,14.23-.33,22.33-1.51,8.09-1.17,15.39-3.15,21.83-4.89,5.66-1.54,11.46-3.11,14.96-3.11,1.12,0,2.01.16,2.58.54.09.06.29.19.48.51.2.32.41.85.53,1.71.65,4.47-1.83,12.71-8.85,21.07-4.26,5.07-13.42,13.88-26.94,15.84-13.53,1.96-24.81-3.87-30.34-7.53Z"/>
    </g>
    <path class="cls-2" d="M174.93,199.04c-5.75.68-11.86.96-18.04.96-2.77,0-5.56-.06-8.34-.16-1.7-.07-3.4-.15-5.09-.24-1.57-.09-3.12-.19-4.67-.31-2.83-2.31-4.84-4.75-5.81-7.07,1.13.11,2.25.21,3.36.3,1.19.1,2.36.2,3.52.28,12.98.95,24.42.89,33.68-.2l1.39,6.43Z"/>
  </g>
</svg>